<svg version="1.1" id="Layer_1" xmlns="http://www.w3.org/2000/svg" xmlns:xlink="http://www.w3.org/1999/xlink" x="0px" y="0px"
	 width="100%" viewBox="0 0 405 93" enable-background="new 0 0 405 93" xml:space="preserve">
<path fill="#FCFCFC" opacity="0.000000" stroke="none" 
	d="
M303.000000,94.000000 
	C202.000015,94.000000 101.500023,94.000000 1.000027,94.000000 
	C1.000018,63.000015 1.000018,32.000031 1.000009,1.000035 
	C135.999969,1.000024 270.999939,1.000024 405.999939,1.000012 
	C405.999939,31.999964 405.999939,62.999928 405.999969,93.999947 
	C371.833344,94.000000 337.666656,94.000000 303.000000,94.000000 
M17.223207,49.959564 
	C17.550749,46.002480 17.305330,41.890759 18.323050,38.119946 
	C20.560682,29.829147 29.485735,25.408867 36.796593,29.222130 
	C40.013111,30.899828 42.198673,34.554092 45.338120,37.815624 
	C47.921680,37.815624 51.555546,37.815624 55.404243,37.815624 
	C54.911953,30.885748 51.801998,25.658497 46.345100,21.857447 
	C31.477898,11.501568 10.134360,19.356792 6.246417,36.963974 
	C5.059131,42.340790 4.975664,48.290661 5.868477,53.735100 
	C8.440921,69.422035 22.034002,78.102890 37.566711,74.679672 
	C47.394791,72.513687 54.673168,64.592957 55.048325,55.234642 
	C53.411377,55.234642 51.787186,55.271645 50.165234,55.227116 
	C46.533024,55.127392 43.096798,54.651455 41.613041,59.610474 
	C41.053158,61.481712 38.106255,63.141621 35.901440,63.929600 
	C26.988161,67.115105 19.785568,61.893391 17.223207,49.959564 
M115.384865,64.357460 
	C115.384865,66.479492 115.384865,68.601517 115.384865,70.689934 
	C119.339355,70.689934 122.741768,70.689934 126.260979,70.689934 
	C126.260979,63.701504 126.177399,57.041023 126.309624,50.384827 
	C126.351746,48.264336 126.513977,45.932106 127.420700,44.090328 
	C128.998718,40.884911 132.014786,39.970963 135.482819,40.714848 
	C139.277328,41.528763 140.535538,44.374935 140.596817,47.750637 
	C140.735550,55.390182 140.640457,63.033978 140.640457,70.716385 
	C144.432831,70.716385 147.823685,70.716385 151.295364,70.716385 
	C151.295364,61.445072 151.726089,52.449764 151.174026,43.515186 
	C150.623978,34.613079 143.157791,29.531649 134.560455,31.955868 
	C131.463745,32.829052 128.808228,35.266846 125.950836,36.990940 
	C125.896538,35.754299 125.820732,34.027859 125.740463,32.199738 
	C122.204285,32.199738 118.975975,32.199738 115.384827,32.199738 
	C115.384827,42.789249 115.384827,53.088375 115.384865,64.357460 
M375.712189,61.881931 
	C376.691040,64.708565 377.783234,67.502106 378.620605,70.370056 
	C379.712585,74.110207 377.614838,76.896492 373.700073,77.108391 
	C372.589111,77.168518 371.472137,77.117577 370.366119,77.117577 
	C369.622528,79.922821 368.966492,82.397690 368.321991,84.829063 
	C378.050262,88.288826 385.838287,85.046684 389.260559,75.816696 
	C394.400848,61.953289 399.138153,47.940361 404.018677,33.981171 
	C404.211243,33.430492 404.113922,32.778465 404.157776,32.075329 
	C400.449341,32.075329 396.982239,32.075329 393.300385,32.075329 
	C390.595001,41.392078 387.914032,50.624855 384.882507,61.064816 
	C381.853729,50.413807 379.234924,41.204334 376.658661,32.144615 
	C372.723236,32.144615 369.295227,32.144615 365.343903,32.144615 
	C368.772614,42.061165 372.075500,51.613865 375.712189,61.881931 
M211.205048,70.753807 
	C214.446823,70.753807 217.688583,70.753807 221.076691,70.753807 
	C221.076691,61.549725 221.099243,52.741066 221.067413,43.932602 
	C221.050842,39.344521 218.899979,35.901352 214.872192,33.865978 
	C208.243225,30.516129 201.245514,30.082968 194.775894,33.719509 
	C191.647949,35.477711 189.508743,38.994942 186.921860,41.715733 
	C192.363968,43.152809 196.825653,45.328640 200.562424,40.458855 
	C201.476273,39.267918 205.075058,39.372223 207.058456,40.029865 
	C208.432373,40.485420 209.548355,42.816593 209.953308,44.507576 
	C210.097107,45.108070 207.921738,46.803562 206.597473,47.114159 
	C202.725296,48.022369 198.678299,48.208363 194.829178,49.186409 
	C189.033035,50.659187 186.180923,54.399075 186.089233,59.824409 
	C185.953156,67.878334 192.772293,73.295174 201.497696,71.466896 
	C204.779663,70.779205 207.748489,68.596977 210.906921,67.073494 
	C210.906921,67.983345 210.906921,68.980217 211.205048,70.753807 
M259.235016,35.184792 
	C250.315186,29.448738 239.563583,30.204693 233.189545,37.016068 
	C226.830093,43.811813 226.143494,56.572044 231.716949,64.382950 
	C236.306015,70.814301 245.182892,73.447075 253.680984,70.897209 
	C260.167816,68.950821 263.976044,63.953285 264.203857,56.819763 
	C259.732117,57.002525 255.190598,55.095451 252.071136,61.054844 
	C250.012268,64.988091 243.198654,63.632408 240.855026,59.242741 
	C238.186996,54.245476 238.164688,48.936226 240.763336,43.913998 
	C243.167450,39.267754 250.154953,38.011475 252.324249,42.203022 
	C255.493683,48.327110 260.073151,45.897556 266.063232,46.132660 
	C263.577911,41.992046 261.682434,38.834099 259.235016,35.184792 
M359.072876,16.657362 
	C355.257965,17.405119 350.369110,16.964638 347.897369,19.198563 
	C344.740570,22.051588 343.534790,27.063326 341.138458,31.841908 
	C340.852417,31.879871 339.274719,32.089264 337.935486,32.267006 
	C337.935486,35.033707 337.935486,37.440521 337.935486,39.785782 
	C339.834717,40.023102 341.402802,40.219044 343.205261,40.444275 
	C343.205261,50.699707 343.205261,60.633049 343.205261,70.748001 
	C346.870178,70.748001 350.251526,70.748001 354.073975,70.748001 
	C354.073975,60.431820 354.073975,50.369808 354.073975,39.786301 
	C356.890961,39.786301 359.266449,39.786301 361.582581,39.786301 
	C361.582581,36.968201 361.582581,34.687737 361.582581,32.131493 
	C360.275208,32.052395 359.155609,31.984156 358.035950,31.917048 
	C356.739105,31.839321 355.442200,31.762590 354.167267,31.686731 
	C354.028320,25.454329 354.293518,25.223583 361.583618,24.967447 
	C363.802185,17.786354 363.802185,17.786354 359.072876,16.657362 
M101.205132,34.289101 
	C91.196747,26.136993 79.045555,25.828346 70.282715,33.503662 
	C61.763737,40.965370 59.839344,53.497868 65.759155,62.963123 
	C72.916359,74.406891 88.169144,77.396904 98.882431,69.456314 
	C110.135887,61.115360 111.351151,46.235771 101.205132,34.289101 
M177.687836,62.798740 
	C176.336487,61.682732 173.889206,60.633293 173.816696,59.439594 
	C173.428864,53.055302 173.633774,46.635002 173.633774,39.906116 
	C176.358322,39.906116 178.452805,39.906116 180.705841,39.906116 
	C180.705841,37.154034 180.705841,34.746006 180.705841,32.095898 
	C178.263962,31.958914 176.016571,31.832838 173.274643,31.679020 
	C173.274643,28.464664 173.274643,25.565090 173.274643,22.844231 
	C169.491135,22.844231 166.242584,22.844231 162.662720,22.844231 
	C162.662720,25.941517 162.662720,28.729193 162.662720,31.662231 
	C160.746933,31.847490 159.164413,32.000523 157.495255,32.161930 
	C157.495255,34.887974 157.495255,37.307590 157.495255,39.837116 
	C159.308594,40.014149 160.878845,40.167450 162.742630,40.349411 
	C162.742630,47.500153 162.610031,54.308903 162.782806,61.109890 
	C162.932449,67.000656 165.946457,70.414619 171.772827,71.191078 
	C174.798706,71.594322 177.922607,71.262070 182.533890,71.262070 
	C180.820358,67.572769 179.694473,65.148674 177.687836,62.798740 
M274.178223,61.846409 
	C276.301025,70.687721 282.669861,73.583832 292.966583,70.178917 
	C292.478973,67.823746 291.984619,65.435974 291.490265,63.048203 
	C291.100739,63.368572 290.711243,63.688942 290.321747,64.009308 
	C288.562103,62.398415 285.462799,60.922138 285.284943,59.152290 
	C284.661011,52.943012 285.042847,46.632660 285.042847,40.209202 
	C287.772034,40.072758 290.008087,39.960968 292.016785,39.860542 
	C292.016785,36.961864 292.016785,34.540642 292.016785,31.796558 
	C289.605408,31.796558 287.507874,31.796558 284.914612,31.796558 
	C284.914612,28.579943 284.914612,25.691690 284.914612,22.926027 
	C281.019073,22.926027 277.641174,22.926027 273.917175,22.926027 
	C273.917175,26.085842 273.917175,28.851427 273.917175,31.588015 
	C272.017761,31.865835 270.467224,32.092621 269.023499,32.303787 
	C269.023499,34.959194 269.023499,37.253674 269.023499,39.855671 
	C270.700623,39.982204 272.263062,40.100086 274.135406,40.241348 
	C274.135406,47.369438 274.135406,54.167618 274.178223,61.846409 
M329.238556,71.014404 
	C330.076721,70.311264 331.636902,69.616943 331.645630,68.903664 
	C331.795166,56.669632 331.753082,44.433258 331.753082,32.252045 
	C327.767883,32.252045 324.384521,32.252045 321.132935,32.252045 
	C321.132935,45.307369 321.132935,58.019798 321.132935,71.014763 
	C323.705383,71.014763 326.002197,71.014763 329.238556,71.014404 
M299.789337,66.327034 
	C300.700867,70.456589 303.449768,72.734520 307.304199,71.159126 
	C309.331512,70.330505 311.710999,66.995430 311.514282,65.034721 
	C311.315063,63.049538 308.371643,60.257175 306.206512,59.792446 
	C302.478027,58.992146 300.050598,61.499264 299.789337,66.327034 
M321.287018,24.266796 
	C322.343170,25.039984 323.437500,26.500156 324.447571,26.444042 
	C326.582062,26.325462 329.256744,25.996069 330.599457,24.647560 
	C331.708832,23.533398 332.081024,20.253744 331.224426,18.978153 
	C330.168793,17.406172 327.411774,15.974713 325.548187,16.151310 
	C321.387817,16.545549 319.606934,19.344774 321.287018,24.266796 
z"/>
<path fill="#FFFFFF" opacity="1.000000" stroke="none" 
	d="
M17.276302,50.383255 
	C19.785568,61.893391 26.988161,67.115105 35.901440,63.929600 
	C38.106255,63.141621 41.053158,61.481712 41.613041,59.610474 
	C43.096798,54.651455 46.533024,55.127392 50.165234,55.227116 
	C51.787186,55.271645 53.411377,55.234642 55.048325,55.234642 
	C54.673168,64.592957 47.394791,72.513687 37.566711,74.679672 
	C22.034002,78.102890 8.440921,69.422035 5.868477,53.735100 
	C4.975664,48.290661 5.059131,42.340790 6.246417,36.963974 
	C10.134360,19.356792 31.477898,11.501568 46.345100,21.857447 
	C51.801998,25.658497 54.911953,30.885748 55.404243,37.815624 
	C51.555546,37.815624 47.921680,37.815624 45.338120,37.815624 
	C42.198673,34.554092 40.013111,30.899828 36.796593,29.222130 
	C29.485735,25.408867 20.560682,29.829147 18.323050,38.119946 
	C17.305330,41.890759 17.550749,46.002480 17.276302,50.383255 
z"/>
<path fill="#FFFFFF" opacity="1.000000" stroke="none" 
	d="
M115.384842,63.872482 
	C115.384827,53.088375 115.384827,42.789249 115.384827,32.199738 
	C118.975975,32.199738 122.204285,32.199738 125.740463,32.199738 
	C125.820732,34.027859 125.896538,35.754299 125.950836,36.990940 
	C128.808228,35.266846 131.463745,32.829052 134.560455,31.955868 
	C143.157791,29.531649 150.623978,34.613079 151.174026,43.515186 
	C151.726089,52.449764 151.295364,61.445072 151.295364,70.716385 
	C147.823685,70.716385 144.432831,70.716385 140.640457,70.716385 
	C140.640457,63.033978 140.735550,55.390182 140.596817,47.750637 
	C140.535538,44.374935 139.277328,41.528763 135.482819,40.714848 
	C132.014786,39.970963 128.998718,40.884911 127.420700,44.090328 
	C126.513977,45.932106 126.351746,48.264336 126.309624,50.384827 
	C126.177399,57.041023 126.260979,63.701504 126.260979,70.689934 
	C122.741768,70.689934 119.339355,70.689934 115.384865,70.689934 
	C115.384865,68.601517 115.384865,66.479492 115.384842,63.872482 
z"/>
<path fill="#FFFFFF" opacity="1.000000" stroke="none" 
	d="
M375.545288,61.524250 
	C372.075500,51.613865 368.772614,42.061165 365.343903,32.144615 
	C369.295227,32.144615 372.723236,32.144615 376.658661,32.144615 
	C379.234924,41.204334 381.853729,50.413807 384.882507,61.064816 
	C387.914032,50.624855 390.595001,41.392078 393.300385,32.075329 
	C396.982239,32.075329 400.449341,32.075329 404.157776,32.075329 
	C404.113922,32.778465 404.211243,33.430492 404.018677,33.981171 
	C399.138153,47.940361 394.400848,61.953289 389.260559,75.816696 
	C385.838287,85.046684 378.050262,88.288826 368.321991,84.829063 
	C368.966492,82.397690 369.622528,79.922821 370.366119,77.117577 
	C371.472137,77.117577 372.589111,77.168518 373.700073,77.108391 
	C377.614838,76.896492 379.712585,74.110207 378.620605,70.370056 
	C377.783234,67.502106 376.691040,64.708565 375.545288,61.524250 
z"/>
<path fill="#FFFFFF" opacity="1.000000" stroke="none" 
	d="
M211.055984,70.365448 
	C210.906921,68.980217 210.906921,67.983345 210.906921,67.073494 
	C207.748489,68.596977 204.779663,70.779205 201.497696,71.466896 
	C192.772293,73.295174 185.953156,67.878334 186.089233,59.824409 
	C186.180923,54.399075 189.033035,50.659187 194.829178,49.186409 
	C198.678299,48.208363 202.725296,48.022369 206.597473,47.114159 
	C207.921738,46.803562 210.097107,45.108070 209.953308,44.507576 
	C209.548355,42.816593 208.432373,40.485420 207.058456,40.029865 
	C205.075058,39.372223 201.476273,39.267918 200.562424,40.458855 
	C196.825653,45.328640 192.363968,43.152809 186.921860,41.715733 
	C189.508743,38.994942 191.647949,35.477711 194.775894,33.719509 
	C201.245514,30.082968 208.243225,30.516129 214.872192,33.865978 
	C218.899979,35.901352 221.050842,39.344521 221.067413,43.932602 
	C221.099243,52.741066 221.076691,61.549725 221.076691,70.753807 
	C217.688583,70.753807 214.446823,70.753807 211.055984,70.365448 
M203.268387,64.144630 
	C209.668472,62.484348 211.055618,60.167221 209.675339,53.426582 
	C207.084534,53.901634 204.281906,53.918091 201.965805,54.987862 
	C199.880905,55.950840 197.120392,57.862148 196.802475,59.721794 
	C196.199829,63.247131 199.341751,64.149963 203.268387,64.144630 
z"/>
<path fill="#FFFFFF" opacity="1.000000" stroke="none" 
	d="
M259.510986,35.430473 
	C261.682434,38.834099 263.577911,41.992046 266.063232,46.132660 
	C260.073151,45.897556 255.493683,48.327110 252.324249,42.203022 
	C250.154953,38.011475 243.167450,39.267754 240.763336,43.913998 
	C238.164688,48.936226 238.186996,54.245476 240.855026,59.242741 
	C243.198654,63.632408 250.012268,64.988091 252.071136,61.054844 
	C255.190598,55.095451 259.732117,57.002525 264.203857,56.819763 
	C263.976044,63.953285 260.167816,68.950821 253.680984,70.897209 
	C245.182892,73.447075 236.306015,70.814301 231.716949,64.382950 
	C226.143494,56.572044 226.830093,43.811813 233.189545,37.016068 
	C239.563583,30.204693 250.315186,29.448738 259.510986,35.430473 
z"/>
<path fill="#FFFFFF" opacity="1.000000" stroke="none" 
	d="
M359.493713,16.718300 
	C363.802185,17.786354 363.802185,17.786354 361.583618,24.967447 
	C354.293518,25.223583 354.028320,25.454329 354.167267,31.686731 
	C355.442200,31.762590 356.739105,31.839321 358.035950,31.917048 
	C359.155609,31.984156 360.275208,32.052395 361.582581,32.131493 
	C361.582581,34.687737 361.582581,36.968201 361.582581,39.786301 
	C359.266449,39.786301 356.890961,39.786301 354.073975,39.786301 
	C354.073975,50.369808 354.073975,60.431820 354.073975,70.748001 
	C350.251526,70.748001 346.870178,70.748001 343.205261,70.748001 
	C343.205261,60.633049 343.205261,50.699707 343.205261,40.444275 
	C341.402802,40.219044 339.834717,40.023102 337.935486,39.785782 
	C337.935486,37.440521 337.935486,35.033707 337.935486,32.267006 
	C339.274719,32.089264 340.852417,31.879871 341.138458,31.841908 
	C343.534790,27.063326 344.740570,22.051588 347.897369,19.198563 
	C350.369110,16.964638 355.257965,17.405119 359.493713,16.718300 
z"/>
<path fill="#FFFFFF" opacity="1.000000" stroke="none" 
	d="
M101.459198,34.542675 
	C111.351151,46.235771 110.135887,61.115360 98.882431,69.456314 
	C88.169144,77.396904 72.916359,74.406891 65.759155,62.963123 
	C59.839344,53.497868 61.763737,40.965370 70.282715,33.503662 
	C79.045555,25.828346 91.196747,26.136993 101.459198,34.542675 
M99.505035,37.014832 
	C90.465057,28.967543 78.754166,29.040617 70.961998,37.192940 
	C63.601925,44.893196 63.536667,56.571533 70.953850,63.991341 
	C74.544579,59.236889 79.212059,56.307022 85.281380,56.225090 
	C91.533958,56.140682 96.138138,59.497929 99.943489,64.134369 
	C107.046646,55.437721 106.972946,46.524445 99.505035,37.014832 
z"/>
<path fill="#FFFFFF" opacity="1.000000" stroke="none" 
	d="
M178.128204,62.761662 
	C179.694473,65.148674 180.820358,67.572769 182.533890,71.262070 
	C177.922607,71.262070 174.798706,71.594322 171.772827,71.191078 
	C165.946457,70.414619 162.932449,67.000656 162.782806,61.109890 
	C162.610031,54.308903 162.742630,47.500153 162.742630,40.349411 
	C160.878845,40.167450 159.308594,40.014149 157.495255,39.837116 
	C157.495255,37.307590 157.495255,34.887974 157.495255,32.161930 
	C159.164413,32.000523 160.746933,31.847490 162.662720,31.662231 
	C162.662720,28.729193 162.662720,25.941517 162.662720,22.844231 
	C166.242584,22.844231 169.491135,22.844231 173.274643,22.844231 
	C173.274643,25.565090 173.274643,28.464664 173.274643,31.679020 
	C176.016571,31.832838 178.263962,31.958914 180.705841,32.095898 
	C180.705841,34.746006 180.705841,37.154034 180.705841,39.906116 
	C178.452805,39.906116 176.358322,39.906116 173.633774,39.906116 
	C173.633774,46.635002 173.428864,53.055302 173.816696,59.439594 
	C173.889206,60.633293 176.336487,61.682732 178.128204,62.761662 
z"/>
<path fill="#FFFFFF" opacity="1.000000" stroke="none" 
	d="
M274.156799,61.406105 
	C274.135406,54.167618 274.135406,47.369438 274.135406,40.241348 
	C272.263062,40.100086 270.700623,39.982204 269.023499,39.855671 
	C269.023499,37.253674 269.023499,34.959194 269.023499,32.303787 
	C270.467224,32.092621 272.017761,31.865835 273.917175,31.588015 
	C273.917175,28.851427 273.917175,26.085842 273.917175,22.926027 
	C277.641174,22.926027 281.019073,22.926027 284.914612,22.926027 
	C284.914612,25.691690 284.914612,28.579943 284.914612,31.796558 
	C287.507874,31.796558 289.605408,31.796558 292.016785,31.796558 
	C292.016785,34.540642 292.016785,36.961864 292.016785,39.860542 
	C290.008087,39.960968 287.772034,40.072758 285.042847,40.209202 
	C285.042847,46.632660 284.661011,52.943012 285.284943,59.152290 
	C285.462799,60.922138 288.562103,62.398415 290.321747,64.009308 
	C290.711243,63.688942 291.100739,63.368572 291.490265,63.048203 
	C291.984619,65.435974 292.478973,67.823746 292.966583,70.178917 
	C282.669861,73.583832 276.301025,70.687721 274.156799,61.406105 
z"/>
<path fill="#FFFFFF" opacity="1.000000" stroke="none" 
	d="
M328.768768,71.014587 
	C326.002197,71.014763 323.705383,71.014763 321.132935,71.014763 
	C321.132935,58.019798 321.132935,45.307369 321.132935,32.252045 
	C324.384521,32.252045 327.767883,32.252045 331.753082,32.252045 
	C331.753082,44.433258 331.795166,56.669632 331.645630,68.903664 
	C331.636902,69.616943 330.076721,70.311264 328.768768,71.014587 
z"/>
<path fill="#FFFFFF" opacity="1.000000" stroke="none" 
	d="
M299.766052,65.925644 
	C300.050598,61.499264 302.478027,58.992146 306.206512,59.792446 
	C308.371643,60.257175 311.315063,63.049538 311.514282,65.034721 
	C311.710999,66.995430 309.331512,70.330505 307.304199,71.159126 
	C303.449768,72.734520 300.700867,70.456589 299.766052,65.925644 
z"/>
<path fill="#FFFFFF" opacity="1.000000" stroke="none" 
	d="
M321.111816,23.939842 
	C319.606934,19.344774 321.387817,16.545549 325.548187,16.151310 
	C327.411774,15.974713 330.168793,17.406172 331.224426,18.978153 
	C332.081024,20.253744 331.708832,23.533398 330.599457,24.647560 
	C329.256744,25.996069 326.582062,26.325462 324.447571,26.444042 
	C323.437500,26.500156 322.343170,25.039984 321.111816,23.939842 
z"/>
<path fill="#F5F5F5" opacity="0.000000" stroke="none" 
	d="
M202.848053,64.164284 
	C199.341751,64.149963 196.199829,63.247131 196.802475,59.721794 
	C197.120392,57.862148 199.880905,55.950840 201.965805,54.987862 
	C204.281906,53.918091 207.084534,53.901634 209.676422,53.432655 
	C211.055618,60.167221 209.668472,62.484348 202.848053,64.164284 
z"/>
<path fill="#F5F5F5" opacity="0.000000" stroke="none" 
	d="
M99.752365,37.281197 
	C106.972946,46.524445 107.046646,55.437721 99.943489,64.134369 
	C96.138138,59.497929 91.533958,56.140682 85.281380,56.225090 
	C79.212059,56.307022 74.544579,59.236889 70.953850,63.991341 
	C63.536667,56.571533 63.601925,44.893196 70.961998,37.192940 
	C78.754166,29.040617 90.465057,28.967543 99.752365,37.281197 
M92.913834,38.727207 
	C87.949081,33.859005 82.056801,33.607643 78.223770,38.100533 
	C74.800568,42.113045 75.348595,48.106438 79.569511,51.366158 
	C83.133118,54.118244 86.982162,54.097393 90.679375,51.711246 
	C94.619972,49.168022 95.433510,44.897099 92.913834,38.727207 
z"/>
<path fill="#FFFFFF" opacity="1.000000" stroke="none" 
	d="
M93.115921,39.054611 
	C95.433510,44.897099 94.619972,49.168022 90.679375,51.711246 
	C86.982162,54.097393 83.133118,54.118244 79.569511,51.366158 
	C75.348595,48.106438 74.800568,42.113045 78.223770,38.100533 
	C82.056801,33.607643 87.949081,33.859005 93.115921,39.054611 
z"/>
</svg>